HIERARCHY
ROOT hip
{
	OFFSET 0.000000 0.000000 0.000000 
	CHANNELS 6 Xposition Yposition Zposition Xrotation Zrotation Yrotation
	JOINT abdomen
	{
		OFFSET 0.000000 3.402643 0.000000 
		CHANNELS 3 Xrotation Zrotation Yrotation
		JOINT chest
		{
			OFFSET 0.000000 8.438565 -0.680529 
			CHANNELS 3 Xrotation Zrotation Yrotation
			JOINT neck
			{
				OFFSET 0.000000 10.207942 -0.272212 
				CHANNELS 3 Xrotation Zrotation Yrotation
				JOINT head
				{
					OFFSET 0.000000 3.130431 0.000000 
					CHANNELS 3 Xrotation Zrotation Yrotation
					End Site
					{
						OFFSET 0.000000 3.130435 0.000000 
					}
				}
			}
			JOINT lCollar
			{
				OFFSET 3.470700 6.669187 -0.816635 
				CHANNELS 3 Yrotation Zrotation Xrotation
				JOINT lShldr
				{
					OFFSET 3.198488 0.000000 0.000000 
					CHANNELS 3 Zrotation Yrotation Xrotation
					JOINT lForeArm
					{
						OFFSET 10.139888 0.000000 0.000000 
						CHANNELS 3 Yrotation Zrotation Xrotation
						JOINT lHand
						{
							OFFSET 8.370511 0.000000 0.000000 
							CHANNELS 3 Zrotation Yrotation Xrotation
							End Site
							{
								OFFSET 4.083176 0.000000 0.000000 
							}
						}
					}
				}
			}
			JOINT rCollar
			{
				OFFSET -3.470700 6.669187 -0.816635 
				CHANNELS 3 Yrotation Zrotation Xrotation
				JOINT rShldr
				{
					OFFSET -3.198488 0.000000 0.000000 
					CHANNELS 3 Zrotation Yrotation Xrotation
					JOINT rForeArm
					{
						OFFSET -10.139888 0.000000 0.000000 
						CHANNELS 3 Yrotation Zrotation Xrotation
						JOINT rHand
						{
							OFFSET -8.370511 0.000000 0.000000 
							CHANNELS 3 Zrotation Yrotation Xrotation
							End Site
							{
								OFFSET -4.083176 0.000000 0.000000 
							}
						}
					}
				}
			}
		}
	}
	JOINT lThigh
	{
		OFFSET 5.308129 -1.633274 1.361059 
		CHANNELS 3 Xrotation Zrotation Yrotation
		JOINT lShin
		{
			OFFSET -2.041588 -20.007561 0.000000 
			CHANNELS 3 Xrotation Zrotation Yrotation
			JOINT lFoot
			{
				OFFSET 0.000000 -19.190928 -1.224953 
				CHANNELS 3 Xrotation Yrotation Zrotation
				End Site
				{
					OFFSET 0.000000 -2.449906 4.627600 
				}
			}
		}
	}
	JOINT rThigh
	{
		OFFSET -5.308129 -1.633274 1.361059 
		CHANNELS 3 Xrotation Zrotation Yrotation
		JOINT rShin
		{
			OFFSET 2.041588 -20.007561 0.000000 
			CHANNELS 3 Xrotation Zrotation Yrotation
			JOINT rFoot
			{
				OFFSET 0.000000 -19.190928 -1.224953 
				CHANNELS 3 Xrotation Yrotation Zrotation
				End Site
				{
					OFFSET 0.000000 -2.449906 4.627600 
				}
			}
		}
	}
}
MOTION
Frames: 20
Frame Time: 0.016667
-8.492096 40.812454 133.932831 -9.882830 -0.115449 6.992770 -20.775200 2.141400 -4.582480 13.419900 5.009910 -2.246870 17.414200 2.577320 -0.652087 14.403400 6.732630 -0.016570 2.000000 -2.000000 0.000000 86.553703 179.294006 -6.935170 80.313004 -0.237854 0.134815 0.065720 -0.059195 -158.572006 -2.000000 2.000000 0.000000 82.423302 -17.268600 164.673004 -59.492699 0.284253 0.117795 -0.054761 0.010767 -140.768997 -8.424300 -3.605053 -8.547729 74.040619 0.545284 4.235891 -12.641056 0.442823 -0.067868 -22.671186 5.389380 2.037593 39.980442 -2.427306 -2.852780 -2.814444 -2.760719 0.013050 
-8.472380 41.288815 134.843887 -9.394780 -0.414290 7.363470 -20.964800 2.134930 -4.404390 13.259000 4.465630 -2.123800 17.763300 2.761950 -0.944068 14.571200 6.757490 -0.156656 2.000000 -2.000000 0.000000 86.319397 178.981995 -7.209300 73.867699 -0.252837 0.131383 0.063872 -0.054310 -156.707001 -2.000000 2.000000 0.000000 83.436096 -15.466600 162.444000 -57.051300 0.289208 0.114731 -0.054958 0.013385 -141.707001 -10.493937 -3.761205 -8.728953 72.680107 0.584349 4.217876 -13.196271 1.093364 0.030727 -21.132666 5.793100 2.176682 38.172588 -2.478724 -2.758820 -2.683790 -3.440430 -0.049007 
-8.452664 41.765308 135.754944 -8.906950 -0.713943 7.729060 -21.154301 2.132020 -4.217080 13.097700 3.921720 -2.006640 18.112900 2.954920 -1.229940 14.729200 6.782500 -0.308652 2.000000 -2.000000 0.000000 86.094902 178.669998 -7.483430 67.432198 -0.267318 0.126299 0.062184 -0.049367 -154.841995 -2.000000 2.000000 0.000000 84.351196 -13.635500 160.270004 -54.619598 0.294008 0.111473 -0.055196 0.015972 -142.634995 -12.556342 -3.925559 -8.884395 71.211792 0.627429 4.196720 -13.687864 1.740732 0.144546 -19.586819 6.186682 2.366058 36.394848 -2.510347 -2.665669 -2.599146 -4.124763 -0.124399 
-8.443903 42.153404 136.562653 -8.448570 -1.004610 7.414810 -21.107401 2.286120 -3.749920 13.169500 3.525260 -1.726010 17.564400 3.106990 -1.643170 14.561600 6.767320 -0.497828 2.000000 -2.000000 0.000000 86.134102 178.876007 -7.795480 61.436100 -0.280219 0.120129 0.061868 -0.048377 -154.470993 -2.000000 2.000000 0.000000 85.023697 -12.149800 159.649002 -53.623501 0.295934 0.110080 -0.056450 0.025569 -146.091995 -14.207541 -3.697667 -8.036251 68.655273 0.763365 4.159104 -14.659647 1.570985 0.070288 -18.342758 6.656696 2.798521 34.890202 -2.545722 -2.567309 -2.360919 -4.425969 -0.131465 
-8.435142 42.541622 137.370377 -7.990340 -1.295890 7.105670 -21.059200 2.443710 -3.273670 13.240900 3.138360 -1.457320 17.015600 3.260240 -2.049900 14.393800 6.742460 -0.680032 2.000000 -2.000000 0.000000 86.173203 179.072006 -8.107540 55.439899 -0.292405 0.112645 0.061549 -0.057125 -154.089996 -2.000000 2.000000 0.000000 85.676804 -10.654300 159.046997 -52.627399 0.297836 0.108654 -0.058275 0.035047 -149.539001 -15.786027 -3.426789 -7.186454 65.979279 0.907164 4.071229 -15.614845 1.409880 0.029678 -17.149673 7.122536 3.253968 33.513000 -2.586213 -2.496157 -2.194712 -4.701911 -0.120091 
-8.385217 42.832680 138.152252 -7.540920 -1.268240 6.466660 -21.016701 2.446200 -2.738540 13.292500 2.731840 -1.168000 16.733400 3.611480 -2.202350 14.346700 6.830080 -0.727567 2.000000 -2.000000 0.000000 -93.904297 1.138990 170.261002 50.596199 -0.301635 0.105695 0.050498 -0.042978 -152.459000 -2.000000 2.000000 0.000000 85.920700 -9.551360 159.322998 -51.709499 0.299566 0.107310 -0.059228 0.039065 -151.014008 -16.878334 -3.273724 -5.938013 62.283382 1.136842 3.964401 -16.756374 1.008508 -0.112449 -16.574181 7.098088 3.393065 33.121399 -2.569365 -2.468943 -2.200874 -4.435090 -0.097555 
-8.335281 43.123871 138.932983 -7.091510 -1.240440 5.818330 -20.972500 2.454340 -2.215910 13.343600 2.325220 -0.889657 16.451300 3.973680 -2.345920 14.309200 6.907870 -0.767188 2.000000 -2.000000 0.000000 -93.981697 1.349980 168.619995 45.752399 -0.310245 0.097991 0.049344 -0.038587 -150.837997 -2.000000 2.000000 0.000000 86.164703 -8.438720 159.608994 -50.791500 0.301274 0.105939 -0.060293 0.043083 -152.498001 -18.002188 -3.094715 -4.673535 58.517815 1.359275 3.830525 -17.807625 0.568905 -0.253286 -16.051409 7.092362 3.513889 32.846962 -2.574003 -2.475095 -2.284734 -4.140308 -0.076438 
-8.265701 43.350559 139.720490 -6.671130 -1.086350 4.921950 -20.896700 2.427590 -1.730930 13.520900 2.035350 -0.631844 16.022499 4.228870 -2.421640 14.143400 6.969490 -0.776939 2.000000 -2.000000 0.000000 -94.175598 1.734110 165.826004 41.836399 -0.316710 0.091248 0.048187 -0.033578 -149.001999 -2.000000 2.000000 0.000000 85.970200 -7.748150 160.850998 -50.400902 0.301994 0.105347 -0.059437 0.039887 -151.315994 -18.463961 -3.009516 -3.587169 54.161396 1.621165 3.641821 -17.943783 1.706962 0.142075 -15.718986 6.963713 3.733801 32.995098 -2.560974 -2.478478 -2.344744 -3.800802 -0.015994 
-8.196130 43.577232 140.506851 -6.260560 -0.912495 4.016100 -20.829300 2.394820 -1.234250 13.698000 1.745240 -0.375805 15.593100 4.485330 -2.491440 13.987400 7.030890 -0.785839 2.000000 -2.000000 0.000000 -94.388702 2.108530 163.022995 37.910500 -0.322714 0.084061 0.047192 -0.028534 -147.166000 -2.000000 2.000000 0.000000 85.785400 -7.057570 162.082993 -50.010201 0.302710 0.104751 -0.058647 0.036673 -150.134995 -18.954777 -2.913121 -2.490638 49.872253 1.850841 3.436078 -18.115646 2.797752 0.559530 -15.385488 6.838447 3.962591 33.182331 -2.554179 -2.492816 -2.428552 -3.452899 0.016835 
-8.107157 43.750076 141.292099 -5.860030 -0.854885 2.978350 -20.799999 2.380640 -0.882720 13.972300 1.513390 -0.194136 15.230200 4.434290 -2.407290 13.770300 7.007030 -0.748710 2.000000 -2.000000 0.000000 -94.444801 2.745680 159.759003 34.580399 -0.327412 0.077654 0.046768 -0.026082 -146.276993 -2.000000 2.000000 0.000000 85.357101 -6.642720 164.300995 -50.664501 0.301508 0.105747 -0.057868 0.033177 -148.854996 -19.069269 -2.913284 -2.265730 46.081745 2.050280 3.249071 -15.648797 3.949302 0.787055 -15.004430 6.789765 4.182048 33.261829 -2.548133 -2.509536 -2.480476 -2.891140 0.073622 
-8.018175 43.923046 142.077347 -5.469270 -0.787415 1.940620 -20.770000 2.357280 -0.527862 14.256200 1.281280 -0.004698 14.868000 4.382040 -2.332010 13.543400 6.983260 -0.713760 2.000000 -2.000000 0.000000 -94.529900 3.392750 156.496994 31.240601 -0.331741 0.070965 0.046379 -0.023597 -145.378998 -2.000000 2.000000 0.000000 84.948196 -6.218130 166.509003 -51.318802 0.300295 0.106730 -0.057166 0.029664 -147.576004 -19.195240 -2.899168 -2.031563 42.328484 2.217761 3.031131 -13.211103 5.079415 0.948925 -14.626300 6.731692 4.392006 33.340096 -2.542866 -2.496921 -2.545188 -2.357943 0.151320 
-7.923226 44.024567 142.815414 -5.224950 -0.651578 1.426770 -20.719700 2.258650 -0.540617 14.539700 1.213980 -0.010732 14.866500 4.192170 -2.113460 13.473700 6.946260 -0.611249 2.000000 -2.000000 0.000000 -94.546402 4.235670 153.399002 28.662399 -0.334812 0.065635 0.046248 -0.022704 -145.057007 -2.000000 2.000000 0.000000 84.509697 -5.812860 168.608994 -52.773899 0.297558 0.108865 -0.056534 0.026082 -146.276993 -19.083157 -3.148166 -2.743238 39.614071 2.345795 2.861622 -9.749513 5.034283 0.669645 -14.175071 6.530133 4.387382 33.613873 -2.559180 -2.516111 -2.994487 -2.171718 0.165728 
-7.828267 44.126083 143.552353 -4.970900 -0.505903 0.922906 -20.669500 2.159970 -0.553508 14.823100 1.136860 -0.026226 14.874700 4.012150 -1.881400 13.394000 6.899820 -0.511402 2.000000 -2.000000 0.000000 -94.611397 5.078720 150.283005 26.074499 -0.337650 0.060152 0.046119 -0.021783 -144.723999 -2.000000 2.000000 0.000000 84.090599 -5.388100 170.710007 -54.219200 0.294785 0.110917 -0.055987 0.022514 -144.988007 -18.994568 -3.402855 -3.442880 36.908466 2.465156 2.700687 -6.296282 4.975683 0.372925 -13.682693 6.323780 4.386462 33.780907 -2.555445 -2.521913 -3.399949 -1.994581 0.178466 
-7.720355 44.193161 144.254456 -4.736600 -0.613133 0.412127 -20.787399 2.206290 -0.596810 14.862200 1.098070 -0.031342 15.139100 3.676660 -1.732410 13.411900 6.822310 -0.472883 2.000000 -2.000000 0.000000 -94.735397 6.313590 147.654007 24.306900 -0.339445 0.056336 0.045723 -0.018663 -143.600998 -2.000000 2.000000 0.000000 -96.299500 -174.695999 -7.786090 -55.840302 0.291616 0.113134 -0.055819 0.021295 -144.548996 -18.949070 -3.386780 -3.924603 35.558849 2.524755 2.597937 -3.253819 3.703449 0.090809 -13.168929 6.323979 4.492268 33.751656 -2.553727 -2.521882 -3.877282 -1.730211 0.175154 
-7.612454 44.260372 144.957703 -4.492530 -0.710701 -0.090650 -20.915100 2.246680 -0.628077 14.911100 1.059290 -0.036330 15.403500 3.352000 -1.574300 13.429900 6.744810 -0.424652 2.000000 -2.000000 0.000000 -94.927498 7.538820 145.014999 22.539301 -0.341121 0.052466 0.045385 -0.015509 -142.468994 -2.000000 2.000000 0.000000 -96.689697 -174.789993 -6.281960 -57.461399 0.288385 0.115261 -0.055663 0.020102 -144.119003 -18.855209 -3.365111 -4.412069 34.121796 2.575255 2.511932 -0.179814 2.381246 -0.127176 -12.698494 6.338358 4.591190 33.770546 -2.564085 -2.524618 -4.342445 -1.481279 0.199660 
-7.513585 44.265003 145.600250 -4.209430 -0.837579 -0.358284 -21.053400 2.332310 -0.761106 14.920700 1.175930 -0.086717 15.559500 3.137400 -1.507910 13.438500 6.686800 -0.403731 2.000000 -2.000000 0.000000 -95.149300 8.647930 142.854996 21.308800 -0.342218 0.049743 0.044907 -0.009375 -140.270996 -2.000000 2.000000 0.000000 -96.894600 -174.748993 -5.422680 -59.248600 0.284755 0.117498 -0.056197 0.023948 -145.505997 -18.731503 -3.260535 -4.067131 33.907162 2.564569 2.512523 -0.114974 1.886179 -0.108016 -12.235103 6.306358 4.634067 33.729218 -2.579175 -2.500080 -5.159437 -1.214390 0.208950 
-7.414739 44.269630 146.243973 -3.916560 -0.954797 -0.618237 -21.191500 2.412040 -0.882433 14.940000 1.282880 -0.135887 15.715600 2.923090 -1.442730 13.456900 6.628580 -0.392597 2.000000 -2.000000 0.000000 -95.410103 9.737600 140.677002 20.068600 -0.343263 0.046974 0.044665 -0.003227 -138.074005 -2.000000 2.000000 0.000000 -97.089699 -174.707993 -4.574070 -61.035702 0.281056 0.119621 -0.056828 0.027808 -146.901993 -18.605961 -3.157031 -3.702859 33.700138 2.574976 2.499337 -0.085143 1.389910 -0.119505 -11.733116 6.276031 4.670675 33.670444 -2.579731 -2.501281 -5.982534 -0.951769 0.220378 
-7.297446 44.277077 146.806793 -3.682580 -1.296150 -0.805278 -21.205200 2.638310 -1.002010 15.037300 1.438610 -0.168251 15.567700 2.862570 -1.468010 13.398200 6.639460 -0.417313 2.000000 -2.000000 0.000000 -95.750198 10.370200 139.475006 19.287300 -0.343891 0.045219 0.044658 0.002871 -135.895996 -2.000000 2.000000 0.000000 -97.060501 -174.865005 -4.905700 -62.402901 0.278184 0.121167 -0.057206 0.029879 -147.654007 -18.206068 -3.098141 -3.992426 33.897179 2.567526 2.513579 -0.891786 2.095316 -0.087446 -11.254063 6.514450 4.888329 33.492760 -2.590283 -2.487856 -6.303440 -0.981595 0.204638 
-7.180142 44.284401 147.368469 -3.438910 -1.637670 -0.995392 -21.228800 2.855250 -1.118600 15.134600 1.594400 -0.190318 15.429800 2.811030 -1.489280 13.339400 6.650330 -0.432284 2.000000 -2.000000 0.000000 -96.109802 10.993000 138.272003 18.496300 -0.344502 0.043433 0.044884 0.008992 -133.709000 -2.000000 2.000000 0.000000 -97.031303 -175.011993 -5.236510 -63.770100 0.275275 0.122644 -0.057612 0.031945 -148.406006 -17.779041 -3.025428 -4.285730 34.084854 2.547397 2.514141 -1.694987 2.795935 -0.057861 -10.794486 6.761349 5.085608 33.324532 -2.599525 -2.464333 -6.645041 -1.000598 0.182692 
-7.061816 44.329380 147.876251 -3.077120 -1.423730 -1.173500 -21.425301 2.902730 -1.075010 14.977700 1.788370 -0.174572 15.457600 2.649440 -1.540410 13.328300 6.592720 -0.472120 2.000000 -2.000000 0.000000 -96.343697 11.558600 137.832001 18.242399 -0.344693 0.042858 0.045160 0.013002 -132.272995 -2.000000 2.000000 0.000000 -96.367599 -174.996002 -6.691630 -64.248596 0.274248 0.123144 -0.058010 0.033845 -149.098999 -17.444223 -3.604095 -4.450365 33.821354 2.535755 2.515449 -2.443456 4.113261 0.040269 -10.615619 6.473493 5.546374 33.363026 -2.609333 -2.466394 -6.913665 -1.130705 0.154067 
